<?xml version="1.0" encoding="UTF-8"?>
<svg xmlns="http://www.w3.org/2000/svg" viewBox="0 0 24 24" fill="none">
    <!-- Background with brand primary-light color and rounded corners -->
    <rect x="0" y="0" width="24" height="24" rx="5" ry="5" fill="#fff0f5"/>
    <!-- Icon strokes in brand accent (Rose Gold) -->
    <path d="M20 21v-8a2 2 0 0 0-2-2H6a2 2 0 0 0-2 2v8" stroke="#d9a0a0" stroke-width="1.5" stroke-linecap="round" stroke-linejoin="round"/>
    <path d="M4 16s.5-1 2-1 2.5 2 4 2 2.5-2 4-2 2.5 2 4 2 2-1 2-1" stroke="#d9a0a0" stroke-width="1.5" stroke-linecap="round" stroke-linejoin="round"/>
    <path d="M2 21h20" stroke="#d9a0a0" stroke-width="1.5" stroke-linecap="round" stroke-linejoin="round"/>
    <path d="M7 8v3" stroke="#d9a0a0" stroke-width="1.5" stroke-linecap="round" stroke-linejoin="round"/>
    <path d="M12 8v3" stroke="#d9a0a0" stroke-width="1.5" stroke-linecap="round" stroke-linejoin="round"/>
    <path d="M17 8v3" stroke="#d9a0a0" stroke-width="1.5" stroke-linecap="round" stroke-linejoin="round"/>
    <circle cx="7" cy="4" r=".5" fill="#d9a0a0"/>
    <circle cx="12" cy="4" r=".5" fill="#d9a0a0"/>
    <circle cx="17" cy="4" r=".5" fill="#d9a0a0"/>
</svg>